<?xml version="1.0" encoding="UTF-8" standalone="no"?><!-- Generator: Gravit.io --><svg xmlns="http://www.w3.org/2000/svg" xmlns:xlink="http://www.w3.org/1999/xlink" style="isolation:isolate" viewBox="637.5 -52.311 460.175 518.622" width="460.175pt" height="518.622pt"><g><path d="M 1097.675 231.951 L 1097.675 448.671 C 1097.675 458.407 1089.77 466.311 1080.035 466.311 L 782.315 466.311 C 772.579 466.311 764.675 458.407 764.675 448.671 L 764.675 231.951 C 764.675 222.215 772.579 214.311 782.315 214.311 L 1080.035 214.311 C 1089.77 214.311 1097.675 222.215 1097.675 231.951 Z" style="stroke:none;fill:#F2E1AD;stroke-miterlimit:10;"/><path d="M 944.057 -17.69 L 1092.862 139.869 C 1099.547 146.947 1099.228 158.12 1092.15 164.805 L 875.704 369.227 C 868.626 375.912 857.452 375.592 850.767 368.514 L 701.962 210.956 C 695.277 203.878 695.596 192.704 702.675 186.02 L 919.121 -18.402 C 926.199 -25.087 937.373 -24.768 944.057 -17.69 Z" style="stroke:none;fill:#EBCE7A;stroke-miterlimit:10;"/><path d="M 655.14 -52.311 L 871.86 -52.311 C 881.596 -52.311 889.5 -44.407 889.5 -34.671 L 889.5 263.049 C 889.5 272.785 881.596 280.689 871.86 280.689 L 655.14 280.689 C 645.404 280.689 637.5 272.785 637.5 263.049 L 637.5 -34.671 C 637.5 -44.407 645.404 -52.311 655.14 -52.311 Z" style="stroke:none;fill:#E4BE4D;stroke-miterlimit:10;"/></g></svg>