<?xml version="1.0" encoding="UTF-8" standalone="no"?><!-- Generator: Gravit.io --><svg xmlns="http://www.w3.org/2000/svg" xmlns:xlink="http://www.w3.org/1999/xlink" style="isolation:isolate" viewBox="665 205.378 1437 518.622" width="1437pt" height="518.622pt"><g><path d="M 1125.175 489.64 L 1125.175 706.36 C 1125.175 716.096 1117.27 724 1107.535 724 L 809.815 724 C 800.079 724 792.175 716.096 792.175 706.36 L 792.175 489.64 C 792.175 479.904 800.079 472 809.815 472 L 1107.535 472 C 1117.27 472 1125.175 479.904 1125.175 489.64 Z" style="stroke:none;fill:#F2E1AD;stroke-miterlimit:10;"/><path d="M 971.557 239.999 L 1120.362 397.558 C 1127.047 404.636 1126.728 415.809 1119.65 422.494 L 903.204 626.916 C 896.126 633.601 884.952 633.281 878.267 626.203 L 729.462 468.645 C 722.777 461.567 723.096 450.393 730.175 443.708 L 946.621 239.287 C 953.699 232.602 964.873 232.921 971.557 239.999 Z" style="stroke:none;fill:#EBCE7A;stroke-miterlimit:10;"/><path d="M 682.64 205.378 L 899.36 205.378 C 909.096 205.378 917 213.282 917 223.018 L 917 520.738 C 917 530.474 909.096 538.378 899.36 538.378 L 682.64 538.378 C 672.904 538.378 665 530.474 665 520.738 L 665 223.018 C 665 213.282 672.904 205.378 682.64 205.378 Z" style="stroke:none;fill:#E4BE4D;stroke-miterlimit:10;"/><path d=" M 1241.48 343.83 L 1241.48 420.256 L 1221.803 420.256 L 1221.803 343.83 L 1196.603 343.83 L 1196.603 327.453 L 1266.681 327.453 L 1266.681 343.83 L 1241.48 343.83 L 1241.48 343.83 Z  M 1338.028 420.256 L 1324.508 420.256 L 1320.763 410.607 L 1320.255 410.607 L 1320.255 410.607 Q 1315.367 416.765 1310.194 419.145 L 1310.194 419.145 L 1310.194 419.145 Q 1305.021 421.525 1296.705 421.525 L 1296.705 421.525 L 1296.705 421.525 Q 1286.485 421.525 1280.614 415.685 L 1280.614 415.685 L 1280.614 415.685 Q 1274.742 409.846 1274.742 399.055 L 1274.742 399.055 L 1274.742 399.055 Q 1274.742 387.756 1282.645 382.392 L 1282.645 382.392 L 1282.645 382.392 Q 1290.548 377.028 1306.48 376.457 L 1306.48 376.457 L 1318.795 376.076 L 1318.795 372.966 L 1318.795 372.966 Q 1318.795 362.175 1307.75 362.175 L 1307.75 362.175 L 1307.75 362.175 Q 1299.244 362.175 1287.755 367.316 L 1287.755 367.316 L 1281.344 354.24 L 1281.344 354.24 Q 1293.595 347.829 1308.512 347.829 L 1308.512 347.829 L 1308.512 347.829 Q 1322.794 347.829 1330.411 354.05 L 1330.411 354.05 L 1330.411 354.05 Q 1338.028 360.27 1338.028 372.966 L 1338.028 372.966 L 1338.028 420.256 L 1338.028 420.256 Z  M 1318.795 393.215 L 1318.795 387.375 L 1311.305 387.629 L 1311.305 387.629 Q 1302.862 387.883 1298.736 390.676 L 1298.736 390.676 L 1298.736 390.676 Q 1294.61 393.469 1294.61 399.182 L 1294.61 399.182 L 1294.61 399.182 Q 1294.61 407.37 1304.005 407.37 L 1304.005 407.37 L 1304.005 407.37 Q 1310.733 407.37 1314.764 403.498 L 1314.764 403.498 L 1314.764 403.498 Q 1318.795 399.626 1318.795 393.215 L 1318.795 393.215 L 1318.795 393.215 Z  M 1397.442 347.956 L 1397.442 347.956 L 1397.442 347.956 Q 1410.011 347.956 1417.12 357.763 L 1417.12 357.763 L 1417.12 357.763 Q 1424.229 367.57 1424.229 384.645 L 1424.229 384.645 L 1424.229 384.645 Q 1424.229 402.228 1416.898 411.877 L 1416.898 411.877 L 1416.898 411.877 Q 1409.566 421.525 1396.935 421.525 L 1396.935 421.525 L 1396.935 421.525 Q 1384.43 421.525 1377.32 412.448 L 1377.32 412.448 L 1375.987 412.448 L 1372.75 420.256 L 1357.96 420.256 L 1357.96 321.486 L 1377.32 321.486 L 1377.32 344.465 L 1377.32 344.465 Q 1377.32 348.845 1376.559 358.493 L 1376.559 358.493 L 1377.32 358.493 L 1377.32 358.493 Q 1384.112 347.956 1397.442 347.956 Z  M 1391.222 363.444 L 1391.222 363.444 L 1391.222 363.444 Q 1384.049 363.444 1380.748 367.856 L 1380.748 367.856 L 1380.748 367.856 Q 1377.447 372.267 1377.32 382.424 L 1377.32 382.424 L 1377.32 384.518 L 1377.32 384.518 Q 1377.32 395.944 1380.716 400.895 L 1380.716 400.895 L 1380.716 400.895 Q 1384.112 405.847 1391.476 405.847 L 1391.476 405.847 L 1391.476 405.847 Q 1397.442 405.847 1400.965 400.356 L 1400.965 400.356 L 1400.965 400.356 Q 1404.488 394.865 1404.488 384.391 L 1404.488 384.391 L 1404.488 384.391 Q 1404.488 373.918 1400.934 368.681 L 1400.934 368.681 L 1400.934 368.681 Q 1397.379 363.444 1391.222 363.444 Z  M 1459.586 321.486 L 1459.586 420.256 L 1440.226 420.256 L 1440.226 321.486 L 1459.586 321.486 L 1459.586 321.486 Z  M 1509.288 361.73 L 1509.288 361.73 L 1509.288 361.73 Q 1503.131 361.73 1499.64 365.634 L 1499.64 365.634 L 1499.64 365.634 Q 1496.148 369.538 1495.641 376.711 L 1495.641 376.711 L 1522.809 376.711 L 1522.809 376.711 Q 1522.682 369.538 1519.063 365.634 L 1519.063 365.634 L 1519.063 365.634 Q 1515.445 361.73 1509.288 361.73 Z  M 1512.018 421.525 L 1512.018 421.525 L 1512.018 421.525 Q 1494.879 421.525 1485.23 412.067 L 1485.23 412.067 L 1485.23 412.067 Q 1475.582 402.609 1475.582 385.28 L 1475.582 385.28 L 1475.582 385.28 Q 1475.582 367.443 1484.5 357.7 L 1484.5 357.7 L 1484.5 357.7 Q 1493.419 347.956 1509.161 347.956 L 1509.161 347.956 L 1509.161 347.956 Q 1524.205 347.956 1532.584 356.525 L 1532.584 356.525 L 1532.584 356.525 Q 1540.963 365.095 1540.963 380.202 L 1540.963 380.202 L 1540.963 389.597 L 1495.196 389.597 L 1495.196 389.597 Q 1495.514 397.849 1500.084 402.482 L 1500.084 402.482 L 1500.084 402.482 Q 1504.654 407.116 1512.906 407.116 L 1512.906 407.116 L 1512.906 407.116 Q 1519.317 407.116 1525.03 405.783 L 1525.03 405.783 L 1525.03 405.783 Q 1530.743 404.45 1536.964 401.53 L 1536.964 401.53 L 1536.964 416.511 L 1536.964 416.511 Q 1531.886 419.05 1526.109 420.287 L 1526.109 420.287 L 1526.109 420.287 Q 1520.333 421.525 1512.018 421.525 Z  M 1606.217 399.182 L 1606.217 399.182 L 1606.217 399.182 Q 1606.217 410.099 1598.631 415.812 L 1598.631 415.812 L 1598.631 415.812 Q 1591.046 421.525 1575.938 421.525 L 1575.938 421.525 L 1575.938 421.525 Q 1568.194 421.525 1562.735 420.478 L 1562.735 420.478 L 1562.735 420.478 Q 1557.276 419.431 1552.516 417.399 L 1552.516 417.399 L 1552.516 401.403 L 1552.516 401.403 Q 1557.911 403.942 1564.671 405.656 L 1564.671 405.656 L 1564.671 405.656 Q 1571.432 407.37 1576.573 407.37 L 1576.573 407.37 L 1576.573 407.37 Q 1587.11 407.37 1587.11 401.276 L 1587.11 401.276 L 1587.11 401.276 Q 1587.11 398.991 1585.714 397.563 L 1585.714 397.563 L 1585.714 397.563 Q 1584.317 396.135 1580.89 394.326 L 1580.89 394.326 L 1580.89 394.326 Q 1577.462 392.516 1571.749 390.104 L 1571.749 390.104 L 1571.749 390.104 Q 1563.561 386.677 1559.72 383.757 L 1559.72 383.757 L 1559.72 383.757 Q 1555.88 380.837 1554.134 377.06 L 1554.134 377.06 L 1554.134 377.06 Q 1552.389 373.283 1552.389 367.761 L 1552.389 367.761 L 1552.389 367.761 Q 1552.389 358.303 1559.72 353.129 L 1559.72 353.129 L 1559.72 353.129 Q 1567.052 347.956 1580.509 347.956 L 1580.509 347.956 L 1580.509 347.956 Q 1593.331 347.956 1605.455 353.542 L 1605.455 353.542 L 1599.615 367.507 L 1599.615 367.507 Q 1594.283 365.222 1589.649 363.762 L 1589.649 363.762 L 1589.649 363.762 Q 1585.016 362.302 1580.191 362.302 L 1580.191 362.302 L 1580.191 362.302 Q 1571.622 362.302 1571.622 366.935 L 1571.622 366.935 L 1571.622 366.935 Q 1571.622 369.538 1574.383 371.442 L 1574.383 371.442 L 1574.383 371.442 Q 1577.145 373.347 1586.476 377.092 L 1586.476 377.092 L 1586.476 377.092 Q 1594.791 380.456 1598.663 383.376 L 1598.663 383.376 L 1598.663 383.376 Q 1602.535 386.296 1604.376 390.104 L 1604.376 390.104 L 1604.376 390.104 Q 1606.217 393.913 1606.217 399.182 Z  M 1670.836 399.182 L 1670.836 399.182 L 1670.836 399.182 Q 1670.836 410.099 1663.25 415.812 L 1663.25 415.812 L 1663.25 415.812 Q 1655.665 421.525 1640.558 421.525 L 1640.558 421.525 L 1640.558 421.525 Q 1632.813 421.525 1627.354 420.478 L 1627.354 420.478 L 1627.354 420.478 Q 1621.896 419.431 1617.135 417.399 L 1617.135 417.399 L 1617.135 401.403 L 1617.135 401.403 Q 1622.53 403.942 1629.291 405.656 L 1629.291 405.656 L 1629.291 405.656 Q 1636.051 407.37 1641.192 407.37 L 1641.192 407.37 L 1641.192 407.37 Q 1651.729 407.37 1651.729 401.276 L 1651.729 401.276 L 1651.729 401.276 Q 1651.729 398.991 1650.333 397.563 L 1650.333 397.563 L 1650.333 397.563 Q 1648.937 396.135 1645.509 394.326 L 1645.509 394.326 L 1645.509 394.326 Q 1642.081 392.516 1636.368 390.104 L 1636.368 390.104 L 1636.368 390.104 Q 1628.18 386.677 1624.339 383.757 L 1624.339 383.757 L 1624.339 383.757 Q 1620.499 380.837 1618.753 377.06 L 1618.753 377.06 L 1618.753 377.06 Q 1617.008 373.283 1617.008 367.761 L 1617.008 367.761 L 1617.008 367.761 Q 1617.008 358.303 1624.339 353.129 L 1624.339 353.129 L 1624.339 353.129 Q 1631.671 347.956 1645.128 347.956 L 1645.128 347.956 L 1645.128 347.956 Q 1657.95 347.956 1670.074 353.542 L 1670.074 353.542 L 1664.234 367.507 L 1664.234 367.507 Q 1658.902 365.222 1654.269 363.762 L 1654.269 363.762 L 1654.269 363.762 Q 1649.635 362.302 1644.811 362.302 L 1644.811 362.302 L 1644.811 362.302 Q 1636.241 362.302 1636.241 366.935 L 1636.241 366.935 L 1636.241 366.935 Q 1636.241 369.538 1639.002 371.442 L 1639.002 371.442 L 1639.002 371.442 Q 1641.764 373.347 1651.095 377.092 L 1651.095 377.092 L 1651.095 377.092 Q 1659.41 380.456 1663.282 383.376 L 1663.282 383.376 L 1663.282 383.376 Q 1667.154 386.296 1668.995 390.104 L 1668.995 390.104 L 1668.995 390.104 Q 1670.836 393.913 1670.836 399.182 Z " fill="rgb(228,190,77)"/><path d=" M 1477.867 520.866 L 1477.867 597.292 L 1458.189 597.292 L 1458.189 520.866 L 1432.989 520.866 L 1432.989 504.489 L 1503.067 504.489 L 1503.067 520.866 L 1477.867 520.866 L 1477.867 520.866 Z  M 1581.334 551.017 L 1581.334 597.292 L 1561.974 597.292 L 1561.974 555.842 L 1561.974 555.842 Q 1561.974 540.48 1550.548 540.48 L 1550.548 540.48 L 1550.548 540.48 Q 1542.423 540.48 1538.805 546.003 L 1538.805 546.003 L 1538.805 546.003 Q 1535.187 551.525 1535.187 563.903 L 1535.187 563.903 L 1535.187 597.292 L 1515.826 597.292 L 1515.826 498.522 L 1535.187 498.522 L 1535.187 518.644 L 1535.187 518.644 Q 1535.187 520.993 1534.742 529.689 L 1534.742 529.689 L 1534.298 535.402 L 1535.313 535.402 L 1535.313 535.402 Q 1541.788 524.992 1555.88 524.992 L 1555.88 524.992 L 1555.88 524.992 Q 1568.385 524.992 1574.859 531.721 L 1574.859 531.721 L 1574.859 531.721 Q 1581.334 538.449 1581.334 551.017 L 1581.334 551.017 L 1581.334 551.017 Z  M 1666.393 597.292 L 1651.539 597.292 L 1648.937 588.215 L 1647.921 588.215 L 1647.921 588.215 Q 1644.811 593.166 1639.098 595.864 L 1639.098 595.864 L 1639.098 595.864 Q 1633.385 598.561 1626.085 598.561 L 1626.085 598.561 L 1626.085 598.561 Q 1613.58 598.561 1607.232 591.865 L 1607.232 591.865 L 1607.232 591.865 Q 1600.885 585.168 1600.885 572.599 L 1600.885 572.599 L 1600.885 526.325 L 1620.245 526.325 L 1620.245 567.775 L 1620.245 567.775 Q 1620.245 575.456 1622.975 579.296 L 1622.975 579.296 L 1622.975 579.296 Q 1625.704 583.137 1631.671 583.137 L 1631.671 583.137 L 1631.671 583.137 Q 1639.796 583.137 1643.414 577.709 L 1643.414 577.709 L 1643.414 577.709 Q 1647.032 572.282 1647.032 559.714 L 1647.032 559.714 L 1647.032 526.325 L 1666.393 526.325 L 1666.393 597.292 L 1666.393 597.292 Z  M 1726.314 524.992 L 1726.314 524.992 L 1726.314 524.992 Q 1730.25 524.992 1732.853 525.563 L 1732.853 525.563 L 1731.393 543.718 L 1731.393 543.718 Q 1729.044 543.083 1725.68 543.083 L 1725.68 543.083 L 1725.68 543.083 Q 1716.412 543.083 1711.239 547.844 L 1711.239 547.844 L 1711.239 547.844 Q 1706.065 552.604 1706.065 561.174 L 1706.065 561.174 L 1706.065 597.292 L 1686.705 597.292 L 1686.705 526.325 L 1701.368 526.325 L 1704.225 538.259 L 1705.177 538.259 L 1705.177 538.259 Q 1708.478 532.292 1714.095 528.642 L 1714.095 528.642 L 1714.095 528.642 Q 1719.713 524.992 1726.314 524.992 Z  M 1795.25 576.218 L 1795.25 576.218 L 1795.25 576.218 Q 1795.25 587.136 1787.665 592.849 L 1787.665 592.849 L 1787.665 592.849 Q 1780.079 598.561 1764.972 598.561 L 1764.972 598.561 L 1764.972 598.561 Q 1757.228 598.561 1751.769 597.514 L 1751.769 597.514 L 1751.769 597.514 Q 1746.31 596.467 1741.549 594.435 L 1741.549 594.435 L 1741.549 578.439 L 1741.549 578.439 Q 1746.944 580.978 1753.705 582.692 L 1753.705 582.692 L 1753.705 582.692 Q 1760.465 584.406 1765.606 584.406 L 1765.606 584.406 L 1765.606 584.406 Q 1776.144 584.406 1776.144 578.312 L 1776.144 578.312 L 1776.144 578.312 Q 1776.144 576.027 1774.747 574.599 L 1774.747 574.599 L 1774.747 574.599 Q 1773.351 573.171 1769.923 571.362 L 1769.923 571.362 L 1769.923 571.362 Q 1766.495 569.553 1760.782 567.14 L 1760.782 567.14 L 1760.782 567.14 Q 1752.594 563.713 1748.753 560.793 L 1748.753 560.793 L 1748.753 560.793 Q 1744.913 557.873 1743.167 554.096 L 1743.167 554.096 L 1743.167 554.096 Q 1741.422 550.319 1741.422 544.797 L 1741.422 544.797 L 1741.422 544.797 Q 1741.422 535.339 1748.753 530.165 L 1748.753 530.165 L 1748.753 530.165 Q 1756.085 524.992 1769.542 524.992 L 1769.542 524.992 L 1769.542 524.992 Q 1782.364 524.992 1794.488 530.578 L 1794.488 530.578 L 1788.648 544.543 L 1788.648 544.543 Q 1783.316 542.258 1778.683 540.798 L 1778.683 540.798 L 1778.683 540.798 Q 1774.049 539.338 1769.225 539.338 L 1769.225 539.338 L 1769.225 539.338 Q 1760.655 539.338 1760.655 543.972 L 1760.655 543.972 L 1760.655 543.972 Q 1760.655 546.574 1763.417 548.478 L 1763.417 548.478 L 1763.417 548.478 Q 1766.178 550.383 1775.509 554.128 L 1775.509 554.128 L 1775.509 554.128 Q 1783.824 557.492 1787.696 560.412 L 1787.696 560.412 L 1787.696 560.412 Q 1791.568 563.332 1793.409 567.14 L 1793.409 567.14 L 1793.409 567.14 Q 1795.25 570.949 1795.25 576.218 Z  M 1832.828 598.561 L 1832.828 598.561 L 1832.828 598.561 Q 1820.323 598.561 1813.182 588.849 L 1813.182 588.849 L 1813.182 588.849 Q 1806.041 579.138 1806.041 561.935 L 1806.041 561.935 L 1806.041 561.935 Q 1806.041 544.479 1813.309 534.736 L 1813.309 534.736 L 1813.309 534.736 Q 1820.577 524.992 1833.336 524.992 L 1833.336 524.992 L 1833.336 524.992 Q 1846.729 524.992 1853.775 535.402 L 1853.775 535.402 L 1854.41 535.402 L 1854.41 535.402 Q 1852.95 527.468 1852.95 521.247 L 1852.95 521.247 L 1852.95 498.522 L 1872.374 498.522 L 1872.374 597.292 L 1857.521 597.292 L 1853.775 588.088 L 1852.95 588.088 L 1852.95 588.088 Q 1846.349 598.561 1832.828 598.561 Z  M 1839.62 583.137 L 1839.62 583.137 L 1839.62 583.137 Q 1847.047 583.137 1850.506 578.82 L 1850.506 578.82 L 1850.506 578.82 Q 1853.966 574.504 1854.283 564.157 L 1854.283 564.157 L 1854.283 562.062 L 1854.283 562.062 Q 1854.283 550.637 1850.76 545.685 L 1850.76 545.685 L 1850.76 545.685 Q 1847.237 540.734 1839.303 540.734 L 1839.303 540.734 L 1839.303 540.734 Q 1832.828 540.734 1829.242 546.225 L 1829.242 546.225 L 1829.242 546.225 Q 1825.655 551.716 1825.655 562.189 L 1825.655 562.189 L 1825.655 562.189 Q 1825.655 572.663 1829.273 577.9 L 1829.273 577.9 L 1829.273 577.9 Q 1832.892 583.137 1839.62 583.137 Z  M 1951.212 597.292 L 1937.691 597.292 L 1933.946 587.643 L 1933.438 587.643 L 1933.438 587.643 Q 1928.551 593.801 1923.377 596.181 L 1923.377 596.181 L 1923.377 596.181 Q 1918.204 598.561 1909.889 598.561 L 1909.889 598.561 L 1909.889 598.561 Q 1899.669 598.561 1893.797 592.722 L 1893.797 592.722 L 1893.797 592.722 Q 1887.926 586.882 1887.926 576.091 L 1887.926 576.091 L 1887.926 576.091 Q 1887.926 564.792 1895.829 559.428 L 1895.829 559.428 L 1895.829 559.428 Q 1903.731 554.064 1919.664 553.493 L 1919.664 553.493 L 1931.979 553.112 L 1931.979 550.002 L 1931.979 550.002 Q 1931.979 539.211 1920.934 539.211 L 1920.934 539.211 L 1920.934 539.211 Q 1912.428 539.211 1900.938 544.352 L 1900.938 544.352 L 1894.527 531.276 L 1894.527 531.276 Q 1906.778 524.865 1921.695 524.865 L 1921.695 524.865 L 1921.695 524.865 Q 1935.978 524.865 1943.595 531.086 L 1943.595 531.086 L 1943.595 531.086 Q 1951.212 537.307 1951.212 550.002 L 1951.212 550.002 L 1951.212 597.292 L 1951.212 597.292 Z  M 1931.979 570.251 L 1931.979 564.411 L 1924.488 564.665 L 1924.488 564.665 Q 1916.046 564.919 1911.92 567.712 L 1911.92 567.712 L 1911.92 567.712 Q 1907.794 570.505 1907.794 576.218 L 1907.794 576.218 L 1907.794 576.218 Q 1907.794 584.406 1917.188 584.406 L 1917.188 584.406 L 1917.188 584.406 Q 1923.917 584.406 1927.948 580.534 L 1927.948 580.534 L 1927.948 580.534 Q 1931.979 576.662 1931.979 570.251 L 1931.979 570.251 L 1931.979 570.251 Z  M 1989.171 596.784 L 1960.987 526.325 L 1982.188 526.325 L 1995.582 566.252 L 1995.582 566.252 Q 1997.296 571.457 1997.931 578.566 L 1997.931 578.566 L 1998.312 578.566 L 1998.312 578.566 Q 1999.01 572.028 2001.041 566.252 L 2001.041 566.252 L 2014.181 526.325 L 2034.938 526.325 L 2004.913 606.369 L 2004.913 606.369 Q 2000.787 617.477 1993.138 623 L 1993.138 623 L 1993.138 623 Q 1985.489 628.522 1975.27 628.522 L 1975.27 628.522 L 1975.27 628.522 Q 1970.255 628.522 1965.431 627.443 L 1965.431 627.443 L 1965.431 612.082 L 1965.431 612.082 Q 1968.922 612.907 1973.048 612.907 L 1973.048 612.907 L 1973.048 612.907 Q 1978.189 612.907 1982.03 609.765 L 1982.03 609.765 L 1982.03 609.765 Q 1985.87 606.623 1988.028 600.275 L 1988.028 600.275 L 1989.171 596.784 L 1989.171 596.784 Z  M 2094.605 576.218 L 2094.605 576.218 L 2094.605 576.218 Q 2094.605 587.136 2087.02 592.849 L 2087.02 592.849 L 2087.02 592.849 Q 2079.435 598.561 2064.327 598.561 L 2064.327 598.561 L 2064.327 598.561 Q 2056.583 598.561 2051.124 597.514 L 2051.124 597.514 L 2051.124 597.514 Q 2045.665 596.467 2040.904 594.435 L 2040.904 594.435 L 2040.904 578.439 L 2040.904 578.439 Q 2046.3 580.978 2053.06 582.692 L 2053.06 582.692 L 2053.06 582.692 Q 2059.82 584.406 2064.962 584.406 L 2064.962 584.406 L 2064.962 584.406 Q 2075.499 584.406 2075.499 578.312 L 2075.499 578.312 L 2075.499 578.312 Q 2075.499 576.027 2074.103 574.599 L 2074.103 574.599 L 2074.103 574.599 Q 2072.706 573.171 2069.278 571.362 L 2069.278 571.362 L 2069.278 571.362 Q 2065.851 569.553 2060.138 567.14 L 2060.138 567.14 L 2060.138 567.14 Q 2051.949 563.713 2048.109 560.793 L 2048.109 560.793 L 2048.109 560.793 Q 2044.269 557.873 2042.523 554.096 L 2042.523 554.096 L 2042.523 554.096 Q 2040.777 550.319 2040.777 544.797 L 2040.777 544.797 L 2040.777 544.797 Q 2040.777 535.339 2048.109 530.165 L 2048.109 530.165 L 2048.109 530.165 Q 2055.44 524.992 2068.897 524.992 L 2068.897 524.992 L 2068.897 524.992 Q 2081.72 524.992 2093.844 530.578 L 2093.844 530.578 L 2088.004 544.543 L 2088.004 544.543 Q 2082.672 542.258 2078.038 540.798 L 2078.038 540.798 L 2078.038 540.798 Q 2073.404 539.338 2068.58 539.338 L 2068.58 539.338 L 2068.58 539.338 Q 2060.011 539.338 2060.011 543.972 L 2060.011 543.972 L 2060.011 543.972 Q 2060.011 546.574 2062.772 548.478 L 2062.772 548.478 L 2062.772 548.478 Q 2065.533 550.383 2074.864 554.128 L 2074.864 554.128 L 2074.864 554.128 Q 2083.18 557.492 2087.052 560.412 L 2087.052 560.412 L 2087.052 560.412 Q 2090.924 563.332 2092.765 567.14 L 2092.765 567.14 L 2092.765 567.14 Q 2094.605 570.949 2094.605 576.218 Z " fill="rgb(203,203,203)"/></g></svg>